<mxfile host="app.diagrams.net" modified="2021-07-01T14:40:34.736Z" agent="5.0 (Windows NT 10.0; Win64; x64) AppleWebKit/537.36 (KHTML, like Gecko) Chrome/89.0.4389.90 Safari/537.36" etag="IVp9QqR0p1TpKpGQVul7" version="14.7.6" type="github">
  <diagram id="IJKn8EANJLJS-S3ADYNH" name="第 1 页">
    <mxGraphModel dx="1038" dy="561" grid="1" gridSize="10" guides="1" tooltips="1" connect="1" arrows="1" fold="1" page="1" pageScale="1" pageWidth="827" pageHeight="1169" math="0" shadow="0">
      <root>
        <mxCell id="0" />
        <mxCell id="1" parent="0" />
        <mxCell id="OSPb9oC9OAuDGqBZCw_x-3" value="" style="edgeStyle=orthogonalEdgeStyle;rounded=0;orthogonalLoop=1;jettySize=auto;html=1;" edge="1" parent="1" source="OSPb9oC9OAuDGqBZCw_x-1" target="OSPb9oC9OAuDGqBZCw_x-2">
          <mxGeometry relative="1" as="geometry" />
        </mxCell>
        <mxCell id="OSPb9oC9OAuDGqBZCw_x-1" value="typescript" style="whiteSpace=wrap;html=1;" vertex="1" parent="1">
          <mxGeometry x="80" y="60" width="120" height="60" as="geometry" />
        </mxCell>
        <mxCell id="OSPb9oC9OAuDGqBZCw_x-5" value="" style="edgeStyle=orthogonalEdgeStyle;rounded=0;orthogonalLoop=1;jettySize=auto;html=1;" edge="1" parent="1" source="OSPb9oC9OAuDGqBZCw_x-2" target="OSPb9oC9OAuDGqBZCw_x-4">
          <mxGeometry relative="1" as="geometry" />
        </mxCell>
        <mxCell id="OSPb9oC9OAuDGqBZCw_x-2" value="javascript" style="whiteSpace=wrap;html=1;" vertex="1" parent="1">
          <mxGeometry x="280" y="60" width="120" height="60" as="geometry" />
        </mxCell>
        <mxCell id="OSPb9oC9OAuDGqBZCw_x-4" value="type system" style="whiteSpace=wrap;html=1;" vertex="1" parent="1">
          <mxGeometry x="480" y="60" width="120" height="60" as="geometry" />
        </mxCell>
      </root>
    </mxGraphModel>
  </diagram>
</mxfile>
